#!OML:ASF F:\VICON\USERDATA\INSTALL\rory3\rory3.ASF
:FULLY-SPECIFIED
:DEGREES
3461
root -2.56339 17.7379 0.503387 -56.5091 -84.6161 69.4808
lowerback 14.884 4.46734 -0.575889
upperback 4.41601 5.61407 0.383912
thorax -3.72853 2.68735 -0.268039
lowerneck -23.0441 9.92186 -5.1886
upperneck 22.653 16.87 -4.49186
head 11.1496 6.52414 1.8741
rclavicle -6.91771e-014 3.02153e-014
rhumerus -13.128 32.4729 -81.2104
rradius 105.663
rwrist -0.457831
rhand -19.3759 27.5532
rfingers 7.12502
rthumb 6.94227 -2.31293
lclavicle -6.91771e-014 3.02153e-014
lhumerus -29.3007 -3.87157 85.0193
lradius 120.221
lwrist -2.34622
lhand -19.5425 6.61147
lfingers 7.12502
lthumb 6.78144 36.4829
rfemur -27.0591 1.90094 -5.85549
rtibia 46.6863
rfoot -2.18912 3.19984
rtoes -2.77617
lfemur -37.4129 13.2367 -12.0295
ltibia 46.5152
lfoot 9.27972 -14.2607
ltoes -22.0495
3462
root -2.57383 17.737 0.589713 -63.1003 -84.7807 76.3492
lowerback 14.8017 4.35295 -0.714476
upperback 4.59083 5.43416 0.400961
thorax -3.51416 2.59545 -0.126738
lowerneck -22.9947 10.2025 -5.07033
upperneck 22.3323 17.2315 -4.67954
head 11.0491 6.70038 1.83511
rclavicle -1.03368e-014 3.18055e-015
rhumerus -13.155 32.7057 -81.1364
rradius 105.596
rwrist -1.14927
rhand -18.9825 27.0953
rfingers 7.12502
rthumb 7.32204 -2.75805
lclavicle -1.03368e-014 3.18055e-015
lhumerus -29.5614 -3.49407 84.2386
lradius 120.484
lwrist -2.4184
lhand -19.7988 6.56589
lfingers 7.12502
lthumb 6.53404 36.4451
rfemur -27.8806 2.2557 -6.24268
rtibia 46.4927
rfoot -2.32638 3.4688
rtoes -2.59
lfemur -37.2092 13.1388 -11.4877
ltibia 45.7567
lfoot 7.96712 -12.1978
ltoes -23.2707
3463
root -2.58631 17.7211 0.674301 -66.8808 -84.9402 80.3504
lowerback 14.8233 4.10696 -0.602711
upperback 4.66404 5.11845 0.360069
thorax -3.43281 2.43751 -0.173455
lowerneck -22.796 10.5303 -4.778
upperneck 22.0567 17.5842 -4.84347
head 10.9516 6.89225 1.77214
rclavicle -4.37326e-014 -1.59028e-015
rhumerus -13.1185 32.8607 -81.4329
rradius 105.42
rwrist -2.00883
rhand -17.9683 26.871
rfingers 7.12502
rthumb 8.30095 -2.94594
lclavicle -4.37326e-014 -1.59028e-015
lhumerus -30.0019 -3.04471 83.2969
lradius 120.902
lwrist -2.33969
lhand -19.8675 6.56195
lfingers 7.12502
lthumb 6.46769 36.4432
rfemur -28.3575 2.63564 -6.42117
rtibia 46.0019
rfoot -2.35886 3.48245
rtoes -2.55378
lfemur -36.9941 12.8173 -10.717
ltibia 44.9792
lfoot 6.84377 -9.5967
ltoes -23.4794
3464
root -2.60563 17.6898 0.740284 -72.6748 -85.3444 86.2057
lowerback 15.1091 3.93279 -0.564153
upperback 4.60371 4.88997 0.366743
thorax -3.64554 2.32203 -0.169391
lowerneck -22.3663 10.9132 -4.43341
upperneck 21.8353 17.9519 -4.89423
head 10.8246 7.11521 1.72975
rclavicle -5.32743e-014 1.74931e-014
rhumerus -13.2902 33.2796 -81.826
rradius 105.134
rwrist -3.07112
rhand -16.9599 26.6416
rfingers 7.12502
rthumb 9.27404 -3.13447
lclavicle -5.32743e-014 1.74931e-014
lhumerus -30.7952 -2.44163 82.3012
lradius 121.488
lwrist -2.28889
lhand -20.0366 6.45111
lfingers 7.12502
lthumb 6.30449 36.3373
rfemur -28.6161 3.48704 -6.31467
rtibia 45.255
rfoot -1.94882 3.51438
rtoes -2.73503
lfemur -36.5439 12.8942 -9.68389
ltibia 44.1877
lfoot 5.63232 -7.12046
ltoes -23.9513
3465
root -2.63255 17.6412 0.790626 -82.0576 -85.9442 95.5366
lowerback 15.4387 3.86397 -0.731836
upperback 4.5214 4.77695 0.538461
thorax -3.93693 2.26309 0.0986275
lowerneck -21.8891 11.3429 -3.87619
upperneck 21.738 18.3676 -5.08128
head 10.7739 7.34869 1.6231
rclavicle 2.38542e-014 -1.43125e-014
rhumerus -14.0857 34.0073 -81.9648
rradius 105.339
rwrist -4.57699
rhand -16.1357 26.2458
rfingers 7.12502
rthumb 10.0692 -3.49328
lclavicle 2.38542e-014 -1.43125e-014
lhumerus -31.7789 -1.50484 81.3339
lradius 122.079
lwrist -2.38103
lhand -19.8789 6.23146
lfingers 7.12502
lthumb 6.45672 36.113
rfemur -28.7337 4.86434 -5.93255
rtibia 44.3924
rfoot -1.14502 3.55519
rtoes -2.88792
lfemur -35.9256 13.5163 -8.40387
ltibia 43.3857
lfoot 4.49718 -5.20553
ltoes -24.3417
3466
root -2.66234 17.5748 0.844643 -87.9775 -86.429 101.335
lowerback 15.7372 3.7191 -0.905525
upperback 4.49973 4.56662 0.826249
thorax -4.15483 2.15631 0.516814
lowerneck -21.5698 11.6909 -3.52225
upperneck 21.7421 18.7576 -5.24642
head 10.7718 7.54292 1.56116
rclavicle 4.45278e-014 4.77083e-015
rhumerus -14.9202 34.3836 -82.0222
rradius 105.739
rwrist -6.1277
rhand -15.1643 26.0493
rfingers 7.12502
rthumb 11.0063 -3.64218
lclavicle 4.45278e-014 4.77083e-015
lhumerus -32.6681 -0.415411 80.5093
lradius 122.64
lwrist -2.5555
lhand -19.2107 6.04974
lfingers 7.12502
lthumb 7.10176 35.9106
rfemur -28.5037 5.98984 -5.49294
rtibia 43.6509
rfoot -0.710909 3.64473
rtoes -0.839137
lfemur -35.3862 13.8911 -7.13425
ltibia 42.5362
lfoot 3.63528 -3.57002
ltoes -24.4718
3467
root -2.69311 17.4942 0.909238 -84.6894 -86.6328 97.9764
lowerback 15.9368 3.41723 -1.10908
upperback 4.47984 4.14689 1.06453
thorax -4.30668 1.94934 0.950229
lowerneck -21.4213 11.9345 -3.48286
upperneck 21.8307 19.0705 -5.20768
head 10.778 7.69248 1.60982
rclavicle -7.95139e-015 3.97569e-015
rhumerus -15.5626 34.2827 -82.2467
rradius 105.885
rwrist -7.16239
rhand -14.6783 26.0795
rfingers 7.12502
rthumb 11.475 -3.58642
lclavicle -7.95139e-015 3.97569e-015
lhumerus -33.4736 0.66797 79.7088
lradius 123.163
lwrist -2.84517
lhand -18.8833 6.10643
lfingers 7.12502
lthumb 7.41778 35.9564
rfemur -27.8283 6.31763 -5.27297
rtibia 43.2006
rfoot -1.24783 4.26457
rtoes 5.79586
lfemur -35.1227 13.656 -6.26519
ltibia 41.5929
lfoot 3.21943 -1.89628
ltoes -24.8779
3468
root -2.7271 17.4125 0.96562 -77.6273 -86.8635 90.9172
lowerback 16.0105 3.09217 -1.36122
upperback 4.40676 3.69515 1.29283
thorax -4.44156 1.73044 1.41529
lowerneck -21.2311 12.138 -3.46552
upperneck 21.7869 19.2894 -5.07006
head 10.7116 7.8242 1.67023
rclavicle -1.90833e-014 9.54166e-015
rhumerus -16.3067 34.2712 -82.368
rradius 106.105
rwrist -7.89075
rhand -14.7993 25.9196
rfingers 7.12502
rthumb 11.3583 -3.75284
lclavicle -1.90833e-014 9.54166e-015
lhumerus -34.1985 1.89864 78.6413
lradius 123.583
lwrist -2.89433
lhand -18.921 6.62412
lfingers 7.12502
lthumb 7.38137 36.4754
rfemur -26.8992 6.49538 -4.94049
rtibia 43.0593
rfoot -4.81002 3.01069
rtoes 7.24554
lfemur -34.9715 13.3778 -5.38263
ltibia 40.5262
lfoot 3.14507 -0.33151
ltoes -25.3942
